<?xml version="1.0" encoding="UTF-8" standalone="no"?>
<!-- Created with Inkscape (http://www.inkscape.org/) -->

<svg
   xmlns:dc="http://purl.org/dc/elements/1.1/"
   xmlns:cc="http://creativecommons.org/ns#"
   xmlns:rdf="http://www.w3.org/1999/02/22-rdf-syntax-ns#"
   xmlns:svg="http://www.w3.org/2000/svg"
   xmlns="http://www.w3.org/2000/svg"
   xmlns:sodipodi="http://sodipodi.sourceforge.net/DTD/sodipodi-0.dtd"
   xmlns:inkscape="http://www.inkscape.org/namespaces/inkscape"
   width="1480.5349mm"
   height="1379.8182mm"
   viewBox="0 0 5245.9898 4889.1197"
   id="svg2"
   version="1.1"
   inkscape:version="0.91 r"
   sodipodi:docname="mat.svg">
  <defs
     id="defs4" />
  <sodipodi:namedview
     id="base"
     pagecolor="#ffffff"
     bordercolor="#666666"
     borderopacity="1.0"
     inkscape:pageopacity="0.0"
     inkscape:pageshadow="2"
     inkscape:zoom="0.0875"
     inkscape:cx="6198.9478"
     inkscape:cy="2093.1361"
     inkscape:document-units="px"
     inkscape:current-layer="layer1"
     showgrid="false"
     fit-margin-top="0"
     fit-margin-left="0"
     fit-margin-right="0"
     fit-margin-bottom="0"
     inkscape:window-width="1920"
     inkscape:window-height="1028"
     inkscape:window-x="0"
     inkscape:window-y="25"
     inkscape:window-maximized="1" />
  <metadata
     id="metadata7">
    <rdf:RDF>
      <cc:Work
         rdf:about="">
        <dc:format>image/svg+xml</dc:format>
        <dc:type
           rdf:resource="http://purl.org/dc/dcmitype/StillImage" />
        <dc:title></dc:title>
      </cc:Work>
    </rdf:RDF>
  </metadata>
  <g
     inkscape:label="Layer 1"
     inkscape:groupmode="layer"
     id="layer1"
     transform="translate(6324.6477,2593.6993)">
    <path
       sodipodi:type="star"
       style="fill:#ffffff;stroke:#000000;stroke-width:5;stroke-miterlimit:4;stroke-dasharray:none"
       id="path4140"
       sodipodi:sides="6"
       sodipodi:cx="-828.57141"
       sodipodi:cy="320.93365"
       sodipodi:r1="402.80649"
       sodipodi:r2="348.84064"
       sodipodi:arg1="0.52359878"
       sodipodi:arg2="1.0471976"
       inkscape:flatsided="true"
       inkscape:rounded="0"
       inkscape:randomized="0"
       d="m -479.73076,522.3369 -348.84065,201.40324 -348.84069,-201.40324 0,-402.80649 348.84069,-201.403243 348.84065,201.403243 z"
       transform="matrix(7.4656743,0,0,6.0256362,2484.1915,-2082.9689)" />
    <g
       transform="matrix(-1.1945783,0,0,-1.1945783,-1084.336,-631.26606)"
       id="layer1-3"
       inkscape:label="Layer 1"
       inkscape:transform-center-x="-5907.2048"
       inkscape:transform-center-y="-353.0201">
      <circle
         r="400.20297"
         cy="-412.46802"
         cx="1049.9304"
         id="path4186"
         style="fill:#ffffff;stroke:#000000;stroke-width:0.63490498;stroke-linecap:butt;stroke-linejoin:miter;stroke-miterlimit:4;stroke-dasharray:none;stroke-dashoffset:0" />
      <rect
         ry="1019.6929"
         y="-1725.7533"
         x="223.28619"
         height="2614.6667"
         width="1657.0659"
         id="rect4140"
         style="fill:none;stroke:#000000;stroke-width:55.21149445;stroke-linecap:butt;stroke-linejoin:miter;stroke-miterlimit:4;stroke-dasharray:none;stroke-dashoffset:0" />
      <rect
         ry="872.89709"
         y="-1539.5966"
         x="367.10953"
         height="2238.2571"
         width="1365.6418"
         id="rect4140-0"
         style="fill:none;stroke:#000000;stroke-width:46.37402725;stroke-linecap:butt;stroke-linejoin:miter;stroke-miterlimit:4;stroke-dasharray:none;stroke-dashoffset:0" />
      <rect
         y="-458.79922"
         x="344.47711"
         height="76.662384"
         width="80.702995"
         id="rect4157"
         style="fill:#ff0000;stroke:#ffffff;stroke-width:1.10920978;stroke-linecap:butt;stroke-linejoin:miter;stroke-miterlimit:4;stroke-dasharray:none;stroke-dashoffset:0" />
      <rect
         y="-458.79922"
         x="1674.6808"
         height="76.662384"
         width="80.702995"
         id="rect4157-4"
         style="fill:#ffff00;stroke:#ffffff;stroke-width:1.10920978;stroke-linecap:butt;stroke-linejoin:miter;stroke-miterlimit:4;stroke-dasharray:none;stroke-dashoffset:0" />
      <rect
         y="-1562.229"
         x="1009.579"
         height="76.662384"
         width="80.702995"
         id="rect4157-0"
         style="fill:#00ff00;stroke:#00ff00;stroke-width:1.10920978;stroke-linecap:butt;stroke-linejoin:miter;stroke-miterlimit:4;stroke-dasharray:none;stroke-dashoffset:0" />
      <rect
         y="644.63055"
         x="1009.579"
         height="76.662384"
         width="80.702995"
         id="rect4157-7"
         style="fill:#0000ff;stroke:#ffffff;stroke-width:1.10920978;stroke-linecap:butt;stroke-linejoin:miter;stroke-miterlimit:4;stroke-dasharray:none;stroke-dashoffset:0" />
      <rect
         y="-889.09644"
         x="1009.579"
         height="76.662384"
         width="80.702995"
         id="rect4157-0-1"
         style="fill:#00ff00;stroke:#00ff00;stroke-width:1.10920978;stroke-linecap:butt;stroke-linejoin:miter;stroke-miterlimit:4;stroke-dasharray:none;stroke-dashoffset:0" />
      <rect
         y="-458.79922"
         x="569.78064"
         height="76.662384"
         width="80.702995"
         id="rect4157-05"
         style="fill:#ff0000;stroke:#ffffff;stroke-width:1.10920978;stroke-linecap:butt;stroke-linejoin:miter;stroke-miterlimit:4;stroke-dasharray:none;stroke-dashoffset:0" />
      <rect
         y="-458.79922"
         x="1446.5931"
         height="76.662384"
         width="80.702995"
         id="rect4157-4-7"
         style="fill:#ffff00;stroke:#ffffff;stroke-width:1.10920978;stroke-linecap:butt;stroke-linejoin:miter;stroke-miterlimit:4;stroke-dasharray:none;stroke-dashoffset:0" />
      <rect
         y="-16.324625"
         x="1009.579"
         height="76.662384"
         width="80.702995"
         id="rect4157-7-0"
         style="fill:#0000ff;stroke:#ffffff;stroke-width:1.10920978;stroke-linecap:butt;stroke-linejoin:miter;stroke-miterlimit:4;stroke-dasharray:none;stroke-dashoffset:0" />
      <rect
         y="-501.63593"
         x="964.4845"
         height="162.33582"
         width="170.89198"
         id="rect4157-05-0"
         style="fill:#000000;stroke:#ffffff;stroke-width:2.34879827;stroke-linecap:butt;stroke-linejoin:miter;stroke-miterlimit:4;stroke-dasharray:none;stroke-dashoffset:0" />
    </g>
    <g
       transform="matrix(1.1616318,0,0,-1.1616318,-5862.6677,1218.2111)"
       inkscape:label="Field"
       id="g4289">
      <g
         id="g4291">
        <g
           transform="matrix(1,0,0,-1,0,2383.937)"
           id="g4293">
          <path
             inkscape:connector-curvature="0"
             id="path4295"
             style="fill:#00ff00;fill-opacity:1;fill-rule:nonzero;stroke:#00ff00;stroke-width:0.88736802;stroke-linecap:butt;stroke-linejoin:miter;stroke-miterlimit:4;stroke-dasharray:none;stroke-opacity:1"
             d="m 106.465,105.895 64.563,0 0,61.332 -64.563,0 0,-61.332 z" />
        </g>
        <g
           transform="matrix(1,0,0,-1,0,2383.937)"
           id="g4297">
          <path
             inkscape:connector-curvature="0"
             id="path4299"
             style="fill:#ff0000;fill-opacity:1;fill-rule:nonzero;stroke:#ffffff;stroke-width:0.88736802;stroke-linecap:butt;stroke-linejoin:miter;stroke-miterlimit:4;stroke-dasharray:none;stroke-opacity:1"
             d="m 106.465,2224.77 64.563,0 0,61.328 -64.563,0 0,-61.328 z" />
        </g>
        <g
           transform="matrix(1,0,0,-1,0,2383.937)"
           id="g4301">
          <path
             inkscape:connector-curvature="0"
             id="path4303"
             style="fill:#ffff00;fill-opacity:1;fill-rule:nonzero;stroke:#ffffff;stroke-width:0.88736802;stroke-linecap:butt;stroke-linejoin:miter;stroke-miterlimit:4;stroke-dasharray:none;stroke-opacity:1"
             d="m 1526.031,105.895 64.563,0 0,61.332 -64.563,0 0,-61.332 z" />
        </g>
        <g
           transform="matrix(1,0,0,-1,0,2383.937)"
           id="g4305">
          <path
             inkscape:connector-curvature="0"
             id="path4307"
             style="fill:#0000ff;fill-opacity:1;fill-rule:nonzero;stroke:#ffffff;stroke-width:0.88736802;stroke-linecap:butt;stroke-linejoin:miter;stroke-miterlimit:4;stroke-dasharray:none;stroke-opacity:1"
             d="m 1526.031,2224.77 64.563,0 0,61.328 -64.563,0 0,-61.328 z" />
        </g>
        <g
           transform="matrix(1,0,0,-1,0,2383.937)"
           id="g4309">
          <path
             inkscape:connector-curvature="0"
             id="path4311"
             style="fill:#ffffff;fill-opacity:1;fill-rule:nonzero;stroke:#000000;stroke-width:40;stroke-linecap:butt;stroke-linejoin:miter;stroke-miterlimit:4;stroke-dasharray:none;stroke-opacity:1"
             d="m 1184.707,1195.996 c 0,89.16 -35.418,174.672 -98.465,237.715 -63.047,63.047 -148.554,98.465 -237.715,98.465 -89.16,0 -174.668,-35.418 -237.714,-98.465 -63.043,-63.043 -98.465,-148.555 -98.465,-237.715 0,-89.16 35.422,-174.668 98.465,-237.711 63.046,-63.047 148.554,-98.465 237.714,-98.465 89.161,0 174.668,35.418 237.715,98.465 63.047,63.043 98.465,148.551 98.465,237.711 z" />
        </g>
        <g
           transform="matrix(1,0,0,-1,0,2383.937)"
           id="g4313">
          <path
             inkscape:connector-curvature="0"
             id="path4315"
             style="fill:#ffffff;fill-opacity:1;fill-rule:nonzero;stroke:#000000;stroke-width:29.83547974;stroke-linecap:butt;stroke-linejoin:miter;stroke-miterlimit:4;stroke-dasharray:none;stroke-opacity:1"
             d="m 1099.281,45 c 0,89.582 -47.793,172.363 -125.379,217.156 -77.582,44.793 -173.168,44.793 -250.75,0 C 645.57,217.363 597.777,134.582 597.777,45 l 501.504,0 z" />
        </g>
        <g
           transform="matrix(-1,0,0,1,0,2383.937)"
           id="g4317">
          <path
             inkscape:connector-curvature="0"
             id="path4319"
             style="fill:#ffffff;fill-opacity:1;fill-rule:nonzero;stroke:#000000;stroke-width:29.83547974;stroke-linecap:butt;stroke-linejoin:miter;stroke-miterlimit:4;stroke-dasharray:none;stroke-opacity:1"
             d="m -597.777,-2346.996 c 0,89.586 -47.793,172.363 -125.375,217.156 -77.582,44.793 -173.168,44.793 -250.75,0 -77.586,-44.793 -125.379,-127.57 -125.379,-217.156 l 501.504,0 z" />
        </g>
        <g
           transform="matrix(1,0,0,-1,0,2383.937)"
           id="g4321">
          <path
             inkscape:connector-curvature="0"
             id="path4323"
             style="fill:none;stroke:#000000;stroke-width:40;stroke-linecap:butt;stroke-linejoin:miter;stroke-miterlimit:4;stroke-dasharray:none;stroke-opacity:1"
             d="m 51.719,50.082 1593.617,0 0,2291.832 -1593.617,0 0,-2291.832 z" />
        </g>
      </g>
    </g>
  </g>
</svg>
